<svg width="302" height="168" viewBox="0 0 302 168" fill="none" xmlns="http://www.w3.org/2000/svg">
<path d="M-98.8008 201.083C-98.8008 90.5254 -9.25769 0.900391 101.199 0.900391H301.199C301.199 111.458 211.656 201.083 101.199 201.083H-98.8008Z" fill="#81082C"/>
<path d="M-98.8008 201.083C-98.8008 104.345 -20.4506 25.9229 76.1993 25.9229H251.199C251.199 122.661 172.849 201.083 76.1993 201.083H-98.8008Z" fill="#A50C39"/>
<path d="M-98.8008 201.083C-98.8008 118.164 -31.6434 50.9453 51.1993 50.9453H201.199C201.199 133.864 134.042 201.083 51.1993 201.083H-98.8008Z" fill="#C70D46"/>
<path d="M-98.8008 201.083C-98.8008 131.984 -42.8363 75.9688 26.1992 75.9688H151.199C151.199 145.068 95.2348 201.083 26.1992 201.083H-98.8008Z" fill="#EB1152"/>
</svg>
