<svg width="214" height="102" viewBox="0 0 214 102" fill="none" xmlns="http://www.w3.org/2000/svg">
<path fill-rule="evenodd" clip-rule="evenodd" d="M0.5 0.401367H17.2743C35.8026 0.401367 50.8228 15.4353 50.8228 33.9806V84.3495C41.5587 84.3495 34.0486 76.8326 34.0486 67.5599V33.9806C34.0486 24.708 26.5385 17.191 17.2743 17.191C8.0101 17.191 0.5 9.67402 0.5 0.401367Z" fill="#EB1152"/>
<path d="M50.8228 17.191C50.8228 7.91834 58.3329 0.401367 67.5971 0.401367H84.3714C84.3714 9.67402 76.8613 17.191 67.5971 17.191H50.8228Z" fill="#EB1152"/>
<path d="M109.449 39.5207V84.349H99.4683V78.6405C97.7908 80.6553 95.694 82.2223 93.1779 83.3416C90.6618 84.405 87.9499 84.9366 85.0424 84.9366C79.0595 84.9366 74.3348 83.2857 70.8681 79.9837C67.4573 76.6258 65.752 71.6728 65.752 65.1249V39.5207H76.2359V63.6978C76.2359 67.7273 77.1305 70.7494 78.9198 72.7642C80.7649 74.7229 83.3649 75.7023 86.7198 75.7023C90.4661 75.7023 93.4295 74.555 95.6102 72.2605C97.8467 69.9099 98.965 66.552 98.965 62.1867V39.5207H109.449Z" fill="#F3F4F6"/>
<path d="M123.176 39.5207H133.66V84.349H123.176V39.5207ZM128.46 32.1332C126.559 32.1332 124.965 31.5456 123.679 30.3703C122.393 29.1391 121.75 27.628 121.75 25.8371C121.75 24.0462 122.393 22.5631 123.679 21.3879C124.965 20.1566 126.559 19.541 128.46 19.541C130.361 19.541 131.954 20.1287 133.24 21.3039C134.526 22.4232 135.169 23.8504 135.169 25.5853C135.169 27.4321 134.526 28.9992 133.24 30.2864C132.01 31.5176 130.417 32.1332 128.46 32.1332Z" fill="#F3F4F6"/>
<path d="M147.42 22.0595H157.904V84.349H147.42V22.0595Z" fill="#F3F4F6"/>
<path d="M213.6 39.5207L192.632 87.9588C190.675 92.8278 188.298 96.2417 185.503 98.2004C182.707 100.215 179.324 101.223 175.354 101.223C173.118 101.223 170.909 100.859 168.728 100.131C166.548 99.4037 164.758 98.3963 163.361 97.1091L167.554 89.3859C168.561 90.3373 169.735 91.0928 171.077 91.6525C172.475 92.2121 173.872 92.492 175.27 92.492C177.115 92.492 178.625 92.0163 179.799 91.0649C181.029 90.1134 182.148 88.5184 183.154 86.2798L183.909 84.5169L164.367 39.5207H175.27L189.361 72.6802L203.535 39.5207H213.6Z" fill="#F3F4F6"/>
</svg>
