<svg width="214" height="132" viewBox="0 0 214 132" fill="none" xmlns="http://www.w3.org/2000/svg">
<path d="M107.05 117.398C122.018 105.385 131.6 86.9365 131.6 66.25C131.6 45.5645 122.018 27.1162 107.05 15.1025C92.082 27.1162 82.5 45.5645 82.5 66.25C82.5 86.9365 92.082 105.385 107.05 117.398Z" fill="#FF5F00"/>
<path d="M107.05 15.1025C95.8232 6.0918 81.5664 0.700195 66.0498 0.700195C29.8477 0.700195 0.5 30.0479 0.5 66.25C0.5 102.452 29.8477 131.8 66.0498 131.8C81.5654 131.8 95.8232 126.409 107.05 117.398C92.082 105.385 82.5 86.9365 82.5 66.25C82.5 45.5645 92.082 27.1162 107.05 15.1025Z" fill="#EB001B"/>
<path d="M107.051 117.398C122.019 105.385 131.601 86.9365 131.601 66.25C131.601 45.5645 122.019 27.1162 107.051 15.1025C118.278 6.09082 132.535 0.700195 148.051 0.700195C184.253 0.700195 213.601 30.0479 213.601 66.25C213.601 102.452 184.253 131.8 148.051 131.8C132.535 131.8 118.278 126.409 107.051 117.398Z" fill="#F79E1B"/>
</svg>
